<?xml version="1.0" encoding="utf-8"?>
<svg viewBox="185.803 18.976 295.026 295.315" xmlns="http://www.w3.org/2000/svg">
  <defs>
    <rect id="p" width="8" height="8"></rect>
  </defs>
  <g fill="#000000" transform="matrix(1, 0, 0, 1, 185.009718, 20.932044)">
    <rect width="8" height="8" transform="matrix(1, 0, 0, 1, 32, 32)"></rect>
    <rect width="8" height="8" transform="matrix(1, 0, 0, 1, 32, 40)"></rect>
    <rect width="8" height="8" transform="matrix(1, 0, 0, 1, 32, 48)"></rect>
    <rect width="8" height="8" transform="matrix(1, 0, 0, 1, 32, 56)"></rect>
    <rect width="8" height="8" transform="matrix(1, 0, 0, 1, 32, 64)"></rect>
    <rect width="8" height="8" transform="matrix(1, 0, 0, 1, 32, 72)"></rect>
    <rect width="8" height="8" transform="matrix(1, 0, 0, 1, 32, 80)"></rect>
    <rect width="8" height="8" transform="matrix(1, 0, 0, 1, 32, 104)"></rect>
    <rect width="8" height="8" transform="matrix(1, 0, 0, 1, 32, 112)"></rect>
    <rect width="8" height="8" transform="matrix(1, 0, 0, 1, 32, 128)"></rect>
    <rect width="8" height="8" transform="matrix(1, 0, 0, 1, 32, 136)"></rect>
    <rect width="8" height="8" transform="matrix(1, 0, 0, 1, 32, 160)"></rect>
    <rect width="8" height="8" transform="matrix(1, 0, 0, 1, 32, 168)"></rect>
    <rect width="8" height="8" transform="matrix(1, 0, 0, 1, 32, 184)"></rect>
    <rect width="8" height="8" transform="matrix(1, 0, 0, 1, 32, 208)"></rect>
    <rect width="8" height="8" transform="matrix(1, 0, 0, 1, 32, 216)"></rect>
    <rect width="8" height="8" transform="matrix(1, 0, 0, 1, 32, 224)"></rect>
    <rect width="8" height="8" transform="matrix(1, 0, 0, 1, 32, 232)"></rect>
    <rect width="8" height="8" transform="matrix(1, 0, 0, 1, 32, 240)"></rect>
    <rect width="8" height="8" transform="matrix(1, 0, 0, 1, 32, 248)"></rect>
    <rect width="8" height="8" transform="matrix(1, 0, 0, 1, 32, 256)"></rect>
    <rect width="8" height="8" transform="matrix(1, 0, 0, 1, 40, 32)"></rect>
    <rect width="8" height="8" transform="matrix(1, 0, 0, 1, 40, 80)"></rect>
    <rect width="8" height="8" transform="matrix(1, 0, 0, 1, 40, 96)"></rect>
    <rect width="8" height="8" transform="matrix(1, 0, 0, 1, 40, 104)"></rect>
    <rect width="8" height="8" transform="matrix(1, 0, 0, 1, 40, 120)"></rect>
    <rect width="8" height="8" transform="matrix(1, 0, 0, 1, 40, 128)"></rect>
    <rect width="8" height="8" transform="matrix(1, 0, 0, 1, 40, 152)"></rect>
    <rect width="8" height="8" transform="matrix(1, 0, 0, 1, 40, 160)"></rect>
    <rect width="8" height="8" transform="matrix(1, 0, 0, 1, 40, 168)"></rect>
    <rect width="8" height="8" transform="matrix(1, 0, 0, 1, 40, 176)"></rect>
    <rect width="8" height="8" transform="matrix(1, 0, 0, 1, 40, 192)"></rect>
    <rect width="8" height="8" transform="matrix(1, 0, 0, 1, 40, 208)"></rect>
    <rect width="8" height="8" transform="matrix(1, 0, 0, 1, 40, 256)"></rect>
    <rect width="8" height="8" transform="matrix(1, 0, 0, 1, 48, 32)"></rect>
    <rect width="8" height="8" transform="matrix(1, 0, 0, 1, 48, 48)"></rect>
    <rect width="8" height="8" transform="matrix(1, 0, 0, 1, 48, 56)"></rect>
    <rect width="8" height="8" transform="matrix(1, 0, 0, 1, 48, 64)"></rect>
    <rect width="8" height="8" transform="matrix(1, 0, 0, 1, 48, 80)"></rect>
    <rect width="8" height="8" transform="matrix(1, 0, 0, 1, 48, 96)"></rect>
    <rect width="8" height="8" transform="matrix(1, 0, 0, 1, 48, 104)"></rect>
    <rect width="8" height="8" transform="matrix(1, 0, 0, 1, 48, 112)"></rect>
    <rect width="8" height="8" transform="matrix(1, 0, 0, 1, 48, 128)"></rect>
    <rect width="8" height="8" transform="matrix(1, 0, 0, 1, 48, 136)"></rect>
    <rect width="8" height="8" transform="matrix(1, 0, 0, 1, 48, 144)"></rect>
    <rect width="8" height="8" transform="matrix(1, 0, 0, 1, 48, 152)"></rect>
    <rect width="8" height="8" transform="matrix(1, 0, 0, 1, 48, 160)"></rect>
    <rect width="8" height="8" transform="matrix(1, 0, 0, 1, 48, 176)"></rect>
    <rect width="8" height="8" transform="matrix(1, 0, 0, 1, 48, 184)"></rect>
    <rect width="8" height="8" transform="matrix(1, 0, 0, 1, 48, 192)"></rect>
    <rect width="8" height="8" transform="matrix(1, 0, 0, 1, 48, 208)"></rect>
    <rect width="8" height="8" transform="matrix(1, 0, 0, 1, 48, 224)"></rect>
    <rect width="8" height="8" transform="matrix(1, 0, 0, 1, 48, 232)"></rect>
    <rect width="8" height="8" transform="matrix(1, 0, 0, 1, 48, 240)"></rect>
    <rect width="8" height="8" transform="matrix(1, 0, 0, 1, 48, 256)"></rect>
    <rect width="8" height="8" transform="matrix(1, 0, 0, 1, 56, 32)"></rect>
    <rect width="8" height="8" transform="matrix(1, 0, 0, 1, 56, 48)"></rect>
    <rect width="8" height="8" transform="matrix(1, 0, 0, 1, 56, 56)"></rect>
    <rect width="8" height="8" transform="matrix(1, 0, 0, 1, 56, 64)"></rect>
    <rect width="8" height="8" transform="matrix(1, 0, 0, 1, 56, 80)"></rect>
    <rect width="8" height="8" transform="matrix(1, 0, 0, 1, 56, 128)"></rect>
    <rect width="8" height="8" transform="matrix(1, 0, 0, 1, 56, 144)"></rect>
    <rect width="8" height="8" transform="matrix(1, 0, 0, 1, 56, 152)"></rect>
    <rect width="8" height="8" transform="matrix(1, 0, 0, 1, 56, 208)"></rect>
    <rect width="8" height="8" transform="matrix(1, 0, 0, 1, 56, 224)"></rect>
    <rect width="8" height="8" transform="matrix(1, 0, 0, 1, 56, 232)"></rect>
    <rect width="8" height="8" transform="matrix(1, 0, 0, 1, 56, 240)"></rect>
    <rect width="8" height="8" transform="matrix(1, 0, 0, 1, 56, 256)"></rect>
    <rect width="8" height="8" transform="matrix(1, 0, 0, 1, 64, 32)"></rect>
    <rect width="8" height="8" transform="matrix(1, 0, 0, 1, 64, 48)"></rect>
    <rect width="8" height="8" transform="matrix(1, 0, 0, 1, 64, 56)"></rect>
    <rect width="8" height="8" transform="matrix(1, 0, 0, 1, 64, 64)"></rect>
    <rect width="8" height="8" transform="matrix(1, 0, 0, 1, 64, 80)"></rect>
    <rect width="8" height="8" transform="matrix(1, 0, 0, 1, 64, 96)"></rect>
    <rect width="8" height="8" transform="matrix(1, 0, 0, 1, 64, 104)"></rect>
    <rect width="8" height="8" transform="matrix(1, 0, 0, 1, 64, 112)"></rect>
    <rect width="8" height="8" transform="matrix(1, 0, 0, 1, 64, 120)"></rect>
    <rect width="8" height="8" transform="matrix(1, 0, 0, 1, 64, 128)"></rect>
    <rect width="8" height="8" transform="matrix(1, 0, 0, 1, 64, 144)"></rect>
    <rect width="8" height="8" transform="matrix(1, 0, 0, 1, 64, 160)"></rect>
    <rect width="8" height="8" transform="matrix(1, 0, 0, 1, 64, 168)"></rect>
    <rect width="8" height="8" transform="matrix(1, 0, 0, 1, 64, 184)"></rect>
    <rect width="8" height="8" transform="matrix(1, 0, 0, 1, 64, 208)"></rect>
    <rect width="8" height="8" transform="matrix(1, 0, 0, 1, 64, 224)"></rect>
    <rect width="8" height="8" transform="matrix(1, 0, 0, 1, 64, 232)"></rect>
    <rect width="8" height="8" transform="matrix(1, 0, 0, 1, 64, 240)"></rect>
    <rect width="8" height="8" transform="matrix(1, 0, 0, 1, 64, 256)"></rect>
    <rect width="8" height="8" transform="matrix(1, 0, 0, 1, 72, 32)"></rect>
    <rect width="8" height="8" transform="matrix(1, 0, 0, 1, 72, 80)"></rect>
    <rect width="8" height="8" transform="matrix(1, 0, 0, 1, 72, 104)"></rect>
    <rect width="8" height="8" transform="matrix(1, 0, 0, 1, 72, 112)"></rect>
    <rect width="8" height="8" transform="matrix(1, 0, 0, 1, 72, 120)"></rect>
    <rect width="8" height="8" transform="matrix(1, 0, 0, 1, 72, 128)"></rect>
    <rect width="8" height="8" transform="matrix(1, 0, 0, 1, 72, 136)"></rect>
    <rect width="8" height="8" transform="matrix(1, 0, 0, 1, 72, 144)"></rect>
    <rect width="8" height="8" transform="matrix(1, 0, 0, 1, 72, 152)"></rect>
    <rect width="8" height="8" transform="matrix(1, 0, 0, 1, 72, 160)"></rect>
    <rect width="8" height="8" transform="matrix(1, 0, 0, 1, 72, 176)"></rect>
    <rect width="8" height="8" transform="matrix(1, 0, 0, 1, 72, 184)"></rect>
    <rect width="8" height="8" transform="matrix(1, 0, 0, 1, 72, 208)"></rect>
    <rect width="8" height="8" transform="matrix(1, 0, 0, 1, 72, 256)"></rect>
    <rect width="8" height="8" transform="matrix(1, 0, 0, 1, 80, 32)"></rect>
    <rect width="8" height="8" transform="matrix(1, 0, 0, 1, 80, 40)"></rect>
    <rect width="8" height="8" transform="matrix(1, 0, 0, 1, 80, 48)"></rect>
    <rect width="8" height="8" transform="matrix(1, 0, 0, 1, 80, 56)"></rect>
    <rect width="8" height="8" transform="matrix(1, 0, 0, 1, 80, 64)"></rect>
    <rect width="8" height="8" transform="matrix(1, 0, 0, 1, 80, 72)"></rect>
    <rect width="8" height="8" transform="matrix(1, 0, 0, 1, 80, 80)"></rect>
    <rect width="8" height="8" transform="matrix(1, 0, 0, 1, 80, 96)"></rect>
    <rect width="8" height="8" transform="matrix(1, 0, 0, 1, 80, 112)"></rect>
    <rect width="8" height="8" transform="matrix(1, 0, 0, 1, 80, 128)"></rect>
    <rect width="8" height="8" transform="matrix(1, 0, 0, 1, 80, 144)"></rect>
    <rect width="8" height="8" transform="matrix(1, 0, 0, 1, 80, 160)"></rect>
    <rect width="8" height="8" transform="matrix(1, 0, 0, 1, 80, 176)"></rect>
    <rect width="8" height="8" transform="matrix(1, 0, 0, 1, 80, 192)"></rect>
    <rect width="8" height="8" transform="matrix(1, 0, 0, 1, 80, 208)"></rect>
    <rect width="8" height="8" transform="matrix(1, 0, 0, 1, 80, 216)"></rect>
    <rect width="8" height="8" transform="matrix(1, 0, 0, 1, 80, 224)"></rect>
    <rect width="8" height="8" transform="matrix(1, 0, 0, 1, 80, 232)"></rect>
    <rect width="8" height="8" transform="matrix(1, 0, 0, 1, 80, 240)"></rect>
    <rect width="8" height="8" transform="matrix(1, 0, 0, 1, 80, 248)"></rect>
    <rect width="8" height="8" transform="matrix(1, 0, 0, 1, 80, 256)"></rect>
    <rect width="8" height="8" transform="matrix(1, 0, 0, 1, 88, 96)"></rect>
    <rect width="8" height="8" transform="matrix(1, 0, 0, 1, 88, 112)"></rect>
    <rect width="8" height="8" transform="matrix(1, 0, 0, 1, 88, 120)"></rect>
    <rect width="8" height="8" transform="matrix(1, 0, 0, 1, 88, 128)"></rect>
    <rect width="8" height="8" transform="matrix(1, 0, 0, 1, 88, 136)"></rect>
    <rect width="8" height="8" transform="matrix(1, 0, 0, 1, 88, 160)"></rect>
    <rect width="8" height="8" transform="matrix(1, 0, 0, 1, 88, 176)"></rect>
    <rect width="8" height="8" transform="matrix(1, 0, 0, 1, 88, 192)"></rect>
    <rect width="8" height="8" transform="matrix(1, 0, 0, 1, 96, 32)"></rect>
    <rect width="8" height="8" transform="matrix(1, 0, 0, 1, 96, 40)"></rect>
    <rect width="8" height="8" transform="matrix(1, 0, 0, 1, 96, 48)"></rect>
    <rect width="8" height="8" transform="matrix(1, 0, 0, 1, 96, 56)"></rect>
    <rect width="8" height="8" transform="matrix(1, 0, 0, 1, 96, 64)"></rect>
    <rect width="8" height="8" transform="matrix(1, 0, 0, 1, 96, 80)"></rect>
    <rect width="8" height="8" transform="matrix(1, 0, 0, 1, 96, 88)"></rect>
    <rect width="8" height="8" transform="matrix(1, 0, 0, 1, 96, 104)"></rect>
    <rect width="8" height="8" transform="matrix(1, 0, 0, 1, 96, 112)"></rect>
    <rect width="8" height="8" transform="matrix(1, 0, 0, 1, 96, 128)"></rect>
    <rect width="8" height="8" transform="matrix(1, 0, 0, 1, 96, 160)"></rect>
    <rect width="8" height="8" transform="matrix(1, 0, 0, 1, 96, 184)"></rect>
    <rect width="8" height="8" transform="matrix(1, 0, 0, 1, 96, 192)"></rect>
    <rect width="8" height="8" transform="matrix(1, 0, 0, 1, 96, 200)"></rect>
    <rect width="8" height="8" transform="matrix(1, 0, 0, 1, 96, 208)"></rect>
    <rect width="8" height="8" transform="matrix(1, 0, 0, 1, 96, 224)"></rect>
    <rect width="8" height="8" transform="matrix(1, 0, 0, 1, 96, 240)"></rect>
    <rect width="8" height="8" transform="matrix(1, 0, 0, 1, 96, 248)"></rect>
    <rect width="8" height="8" transform="matrix(1, 0, 0, 1, 104, 40)"></rect>
    <rect width="8" height="8" transform="matrix(1, 0, 0, 1, 104, 56)"></rect>
    <rect width="8" height="8" transform="matrix(1, 0, 0, 1, 104, 96)"></rect>
    <rect width="8" height="8" transform="matrix(1, 0, 0, 1, 104, 104)"></rect>
    <rect width="8" height="8" transform="matrix(1, 0, 0, 1, 104, 136)"></rect>
    <rect width="8" height="8" transform="matrix(1, 0, 0, 1, 104, 152)"></rect>
    <rect width="8" height="8" transform="matrix(1, 0, 0, 1, 104, 184)"></rect>
    <rect width="8" height="8" transform="matrix(1, 0, 0, 1, 104, 192)"></rect>
    <rect width="8" height="8" transform="matrix(1, 0, 0, 1, 104, 200)"></rect>
    <rect width="8" height="8" transform="matrix(1, 0, 0, 1, 104, 208)"></rect>
    <rect width="8" height="8" transform="matrix(1, 0, 0, 1, 104, 216)"></rect>
    <rect width="8" height="8" transform="matrix(1, 0, 0, 1, 104, 232)"></rect>
    <rect width="8" height="8" transform="matrix(1, 0, 0, 1, 104, 240)"></rect>
    <rect width="8" height="8" transform="matrix(1, 0, 0, 1, 104, 256)"></rect>
    <rect width="8" height="8" transform="matrix(1, 0, 0, 1, 112, 40)"></rect>
    <rect width="8" height="8" transform="matrix(1, 0, 0, 1, 112, 56)"></rect>
    <rect width="8" height="8" transform="matrix(1, 0, 0, 1, 112, 64)"></rect>
    <rect width="8" height="8" transform="matrix(1, 0, 0, 1, 112, 72)"></rect>
    <rect width="8" height="8" transform="matrix(1, 0, 0, 1, 112, 80)"></rect>
    <rect width="8" height="8" transform="matrix(1, 0, 0, 1, 112, 88)"></rect>
    <rect width="8" height="8" transform="matrix(1, 0, 0, 1, 112, 128)"></rect>
    <rect width="8" height="8" transform="matrix(1, 0, 0, 1, 112, 152)"></rect>
    <rect width="8" height="8" transform="matrix(1, 0, 0, 1, 112, 160)"></rect>
    <rect width="8" height="8" transform="matrix(1, 0, 0, 1, 112, 168)"></rect>
    <rect width="8" height="8" transform="matrix(1, 0, 0, 1, 112, 176)"></rect>
    <rect width="8" height="8" transform="matrix(1, 0, 0, 1, 112, 184)"></rect>
    <rect width="8" height="8" transform="matrix(1, 0, 0, 1, 112, 192)"></rect>
    <rect width="8" height="8" transform="matrix(1, 0, 0, 1, 112, 200)"></rect>
    <rect width="8" height="8" transform="matrix(1, 0, 0, 1, 112, 216)"></rect>
    <rect width="8" height="8" transform="matrix(1, 0, 0, 1, 112, 240)"></rect>
    <rect width="8" height="8" transform="matrix(1, 0, 0, 1, 112, 248)"></rect>
    <rect width="8" height="8" transform="matrix(1, 0, 0, 1, 120, 40)"></rect>
    <rect width="8" height="8" transform="matrix(1, 0, 0, 1, 120, 72)"></rect>
    <rect width="8" height="8" transform="matrix(1, 0, 0, 1, 120, 104)"></rect>
    <rect width="8" height="8" transform="matrix(1, 0, 0, 1, 120, 112)"></rect>
    <rect width="8" height="8" transform="matrix(1, 0, 0, 1, 120, 128)"></rect>
    <rect width="8" height="8" transform="matrix(1, 0, 0, 1, 120, 136)"></rect>
    <rect width="8" height="8" transform="matrix(1, 0, 0, 1, 120, 152)"></rect>
    <rect width="8" height="8" transform="matrix(1, 0, 0, 1, 120, 160)"></rect>
    <rect width="8" height="8" transform="matrix(1, 0, 0, 1, 120, 176)"></rect>
    <rect width="8" height="8" transform="matrix(1, 0, 0, 1, 120, 184)"></rect>
    <rect width="8" height="8" transform="matrix(1, 0, 0, 1, 120, 224)"></rect>
    <rect width="8" height="8" transform="matrix(1, 0, 0, 1, 120, 256)"></rect>
    <rect width="8" height="8" transform="matrix(1, 0, 0, 1, 128, 40)"></rect>
    <rect width="8" height="8" transform="matrix(1, 0, 0, 1, 128, 64)"></rect>
    <rect width="8" height="8" transform="matrix(1, 0, 0, 1, 128, 80)"></rect>
    <rect width="8" height="8" transform="matrix(1, 0, 0, 1, 128, 112)"></rect>
    <rect width="8" height="8" transform="matrix(1, 0, 0, 1, 128, 160)"></rect>
    <rect width="8" height="8" transform="matrix(1, 0, 0, 1, 128, 240)"></rect>
    <rect width="8" height="8" transform="matrix(1, 0, 0, 1, 136, 56)"></rect>
    <rect width="8" height="8" transform="matrix(1, 0, 0, 1, 136, 64)"></rect>
    <rect width="8" height="8" transform="matrix(1, 0, 0, 1, 136, 72)"></rect>
    <rect width="8" height="8" transform="matrix(1, 0, 0, 1, 136, 112)"></rect>
    <rect width="8" height="8" transform="matrix(1, 0, 0, 1, 136, 120)"></rect>
    <rect width="8" height="8" transform="matrix(1, 0, 0, 1, 136, 128)"></rect>
    <rect width="8" height="8" transform="matrix(1, 0, 0, 1, 136, 136)"></rect>
    <rect width="8" height="8" transform="matrix(1, 0, 0, 1, 136, 144)"></rect>
    <rect width="8" height="8" transform="matrix(1, 0, 0, 1, 136, 152)"></rect>
    <rect width="8" height="8" transform="matrix(1, 0, 0, 1, 136, 168)"></rect>
    <rect width="8" height="8" transform="matrix(1, 0, 0, 1, 136, 176)"></rect>
    <rect width="8" height="8" transform="matrix(1, 0, 0, 1, 136, 192)"></rect>
    <rect width="8" height="8" transform="matrix(1, 0, 0, 1, 136, 200)"></rect>
    <rect width="8" height="8" transform="matrix(1, 0, 0, 1, 136, 208)"></rect>
    <rect width="8" height="8" transform="matrix(1, 0, 0, 1, 136, 224)"></rect>
    <rect width="8" height="8" transform="matrix(1, 0, 0, 1, 136, 240)"></rect>
    <rect width="8" height="8" transform="matrix(1, 0, 0, 1, 136, 256)"></rect>
    <rect width="8" height="8" transform="matrix(1, 0, 0, 1, 144, 32)"></rect>
    <rect width="8" height="8" transform="matrix(1, 0, 0, 1, 144, 40)"></rect>
    <rect width="8" height="8" transform="matrix(1, 0, 0, 1, 144, 48)"></rect>
    <rect width="8" height="8" transform="matrix(1, 0, 0, 1, 144, 72)"></rect>
    <rect width="8" height="8" transform="matrix(1, 0, 0, 1, 144, 80)"></rect>
    <rect width="8" height="8" transform="matrix(1, 0, 0, 1, 144, 120)"></rect>
    <rect width="8" height="8" transform="matrix(1, 0, 0, 1, 144, 128)"></rect>
    <rect width="8" height="8" transform="matrix(1, 0, 0, 1, 144, 136)"></rect>
    <rect width="8" height="8" transform="matrix(1, 0, 0, 1, 144, 152)"></rect>
    <rect width="8" height="8" transform="matrix(1, 0, 0, 1, 144, 160)"></rect>
    <rect width="8" height="8" transform="matrix(1, 0, 0, 1, 144, 168)"></rect>
    <rect width="8" height="8" transform="matrix(1, 0, 0, 1, 144, 176)"></rect>
    <rect width="8" height="8" transform="matrix(1, 0, 0, 1, 144, 184)"></rect>
    <rect width="8" height="8" transform="matrix(1, 0, 0, 1, 144, 192)"></rect>
    <rect width="8" height="8" transform="matrix(1, 0, 0, 1, 144, 216)"></rect>
    <rect width="8" height="8" transform="matrix(1, 0, 0, 1, 144, 248)"></rect>
    <rect width="8" height="8" transform="matrix(1, 0, 0, 1, 144, 256)"></rect>
    <rect width="8" height="8" transform="matrix(1, 0, 0, 1, 152, 32)"></rect>
    <rect width="8" height="8" transform="matrix(1, 0, 0, 1, 152, 64)"></rect>
    <rect width="8" height="8" transform="matrix(1, 0, 0, 1, 152, 104)"></rect>
    <rect width="8" height="8" transform="matrix(1, 0, 0, 1, 152, 112)"></rect>
    <rect width="8" height="8" transform="matrix(1, 0, 0, 1, 152, 120)"></rect>
    <rect width="8" height="8" transform="matrix(1, 0, 0, 1, 152, 144)"></rect>
    <rect width="8" height="8" transform="matrix(1, 0, 0, 1, 152, 168)"></rect>
    <rect width="8" height="8" transform="matrix(1, 0, 0, 1, 152, 184)"></rect>
    <rect width="8" height="8" transform="matrix(1, 0, 0, 1, 152, 216)"></rect>
    <rect width="8" height="8" transform="matrix(1, 0, 0, 1, 152, 232)"></rect>
    <rect width="8" height="8" transform="matrix(1, 0, 0, 1, 152, 240)"></rect>
    <rect width="8" height="8" transform="matrix(1, 0, 0, 1, 152, 256)"></rect>
    <rect width="8" height="8" transform="matrix(1, 0, 0, 1, 160, 48)"></rect>
    <rect width="8" height="8" transform="matrix(1, 0, 0, 1, 160, 56)"></rect>
    <rect width="8" height="8" transform="matrix(1, 0, 0, 1, 160, 64)"></rect>
    <rect width="8" height="8" transform="matrix(1, 0, 0, 1, 160, 72)"></rect>
    <rect width="8" height="8" transform="matrix(1, 0, 0, 1, 160, 80)"></rect>
    <rect width="8" height="8" transform="matrix(1, 0, 0, 1, 160, 88)"></rect>
    <rect width="8" height="8" transform="matrix(1, 0, 0, 1, 160, 112)"></rect>
    <rect width="8" height="8" transform="matrix(1, 0, 0, 1, 160, 120)"></rect>
    <rect width="8" height="8" transform="matrix(1, 0, 0, 1, 160, 128)"></rect>
    <rect width="8" height="8" transform="matrix(1, 0, 0, 1, 160, 144)"></rect>
    <rect width="8" height="8" transform="matrix(1, 0, 0, 1, 160, 152)"></rect>
    <rect width="8" height="8" transform="matrix(1, 0, 0, 1, 160, 192)"></rect>
    <rect width="8" height="8" transform="matrix(1, 0, 0, 1, 160, 200)"></rect>
    <rect width="8" height="8" transform="matrix(1, 0, 0, 1, 160, 224)"></rect>
    <rect width="8" height="8" transform="matrix(1, 0, 0, 1, 160, 232)"></rect>
    <rect width="8" height="8" transform="matrix(1, 0, 0, 1, 160, 240)"></rect>
    <rect width="8" height="8" transform="matrix(1, 0, 0, 1, 160, 248)"></rect>
    <rect width="8" height="8" transform="matrix(1, 0, 0, 1, 160, 256)"></rect>
    <rect width="8" height="8" transform="matrix(1, 0, 0, 1, 168, 32)"></rect>
    <rect width="8" height="8" transform="matrix(1, 0, 0, 1, 168, 72)"></rect>
    <rect width="8" height="8" transform="matrix(1, 0, 0, 1, 168, 88)"></rect>
    <rect width="8" height="8" transform="matrix(1, 0, 0, 1, 168, 104)"></rect>
    <rect width="8" height="8" transform="matrix(1, 0, 0, 1, 168, 120)"></rect>
    <rect width="8" height="8" transform="matrix(1, 0, 0, 1, 168, 128)"></rect>
    <rect width="8" height="8" transform="matrix(1, 0, 0, 1, 168, 144)"></rect>
    <rect width="8" height="8" transform="matrix(1, 0, 0, 1, 168, 168)"></rect>
    <rect width="8" height="8" transform="matrix(1, 0, 0, 1, 168, 176)"></rect>
    <rect width="8" height="8" transform="matrix(1, 0, 0, 1, 168, 184)"></rect>
    <rect width="8" height="8" transform="matrix(1, 0, 0, 1, 168, 192)"></rect>
    <rect width="8" height="8" transform="matrix(1, 0, 0, 1, 168, 200)"></rect>
    <rect width="8" height="8" transform="matrix(1, 0, 0, 1, 168, 216)"></rect>
    <rect width="8" height="8" transform="matrix(1, 0, 0, 1, 168, 248)"></rect>
    <rect width="8" height="8" transform="matrix(1, 0, 0, 1, 168, 256)"></rect>
    <rect width="8" height="8" transform="matrix(1, 0, 0, 1, 176, 32)"></rect>
    <rect width="8" height="8" transform="matrix(1, 0, 0, 1, 176, 40)"></rect>
    <rect width="8" height="8" transform="matrix(1, 0, 0, 1, 176, 56)"></rect>
    <rect width="8" height="8" transform="matrix(1, 0, 0, 1, 176, 64)"></rect>
    <rect width="8" height="8" transform="matrix(1, 0, 0, 1, 176, 80)"></rect>
    <rect width="8" height="8" transform="matrix(1, 0, 0, 1, 176, 88)"></rect>
    <rect width="8" height="8" transform="matrix(1, 0, 0, 1, 176, 96)"></rect>
    <rect width="8" height="8" transform="matrix(1, 0, 0, 1, 176, 104)"></rect>
    <rect width="8" height="8" transform="matrix(1, 0, 0, 1, 176, 120)"></rect>
    <rect width="8" height="8" transform="matrix(1, 0, 0, 1, 176, 136)"></rect>
    <rect width="8" height="8" transform="matrix(1, 0, 0, 1, 176, 176)"></rect>
    <rect width="8" height="8" transform="matrix(1, 0, 0, 1, 176, 208)"></rect>
    <rect width="8" height="8" transform="matrix(1, 0, 0, 1, 176, 216)"></rect>
    <rect width="8" height="8" transform="matrix(1, 0, 0, 1, 176, 224)"></rect>
    <rect width="8" height="8" transform="matrix(1, 0, 0, 1, 176, 232)"></rect>
    <rect width="8" height="8" transform="matrix(1, 0, 0, 1, 176, 248)"></rect>
    <rect width="8" height="8" transform="matrix(1, 0, 0, 1, 184, 48)"></rect>
    <rect width="8" height="8" transform="matrix(1, 0, 0, 1, 184, 64)"></rect>
    <rect width="8" height="8" transform="matrix(1, 0, 0, 1, 184, 72)"></rect>
    <rect width="8" height="8" transform="matrix(1, 0, 0, 1, 184, 88)"></rect>
    <rect width="8" height="8" transform="matrix(1, 0, 0, 1, 184, 96)"></rect>
    <rect width="8" height="8" transform="matrix(1, 0, 0, 1, 184, 104)"></rect>
    <rect width="8" height="8" transform="matrix(1, 0, 0, 1, 184, 128)"></rect>
    <rect width="8" height="8" transform="matrix(1, 0, 0, 1, 184, 160)"></rect>
    <rect width="8" height="8" transform="matrix(1, 0, 0, 1, 184, 184)"></rect>
    <rect width="8" height="8" transform="matrix(1, 0, 0, 1, 184, 192)"></rect>
    <rect width="8" height="8" transform="matrix(1, 0, 0, 1, 184, 200)"></rect>
    <rect width="8" height="8" transform="matrix(1, 0, 0, 1, 184, 208)"></rect>
    <rect width="8" height="8" transform="matrix(1, 0, 0, 1, 184, 240)"></rect>
    <rect width="8" height="8" transform="matrix(1, 0, 0, 1, 184, 248)"></rect>
    <rect width="8" height="8" transform="matrix(1, 0, 0, 1, 184, 256)"></rect>
    <rect width="8" height="8" transform="matrix(1, 0, 0, 1, 192, 72)"></rect>
    <rect width="8" height="8" transform="matrix(1, 0, 0, 1, 192, 80)"></rect>
    <rect width="8" height="8" transform="matrix(1, 0, 0, 1, 192, 88)"></rect>
    <rect width="8" height="8" transform="matrix(1, 0, 0, 1, 192, 96)"></rect>
    <rect width="8" height="8" transform="matrix(1, 0, 0, 1, 192, 120)"></rect>
    <rect width="8" height="8" transform="matrix(1, 0, 0, 1, 192, 128)"></rect>
    <rect width="8" height="8" transform="matrix(1, 0, 0, 1, 192, 136)"></rect>
    <rect width="8" height="8" transform="matrix(1, 0, 0, 1, 192, 160)"></rect>
    <rect width="8" height="8" transform="matrix(1, 0, 0, 1, 192, 168)"></rect>
    <rect width="8" height="8" transform="matrix(1, 0, 0, 1, 192, 192)"></rect>
    <rect width="8" height="8" transform="matrix(1, 0, 0, 1, 192, 200)"></rect>
    <rect width="8" height="8" transform="matrix(1, 0, 0, 1, 192, 208)"></rect>
    <rect width="8" height="8" transform="matrix(1, 0, 0, 1, 192, 216)"></rect>
    <rect width="8" height="8" transform="matrix(1, 0, 0, 1, 192, 224)"></rect>
    <rect width="8" height="8" transform="matrix(1, 0, 0, 1, 192, 232)"></rect>
    <rect width="8" height="8" transform="matrix(1, 0, 0, 1, 192, 248)"></rect>
    <rect width="8" height="8" transform="matrix(1, 0, 0, 1, 192, 256)"></rect>
    <rect width="8" height="8" transform="matrix(1, 0, 0, 1, 200, 104)"></rect>
    <rect width="8" height="8" transform="matrix(1, 0, 0, 1, 200, 120)"></rect>
    <rect width="8" height="8" transform="matrix(1, 0, 0, 1, 200, 136)"></rect>
    <rect width="8" height="8" transform="matrix(1, 0, 0, 1, 200, 152)"></rect>
    <rect width="8" height="8" transform="matrix(1, 0, 0, 1, 200, 168)"></rect>
    <rect width="8" height="8" transform="matrix(1, 0, 0, 1, 200, 176)"></rect>
    <rect width="8" height="8" transform="matrix(1, 0, 0, 1, 200, 192)"></rect>
    <rect width="8" height="8" transform="matrix(1, 0, 0, 1, 208, 32)"></rect>
    <rect width="8" height="8" transform="matrix(1, 0, 0, 1, 208, 40)"></rect>
    <rect width="8" height="8" transform="matrix(1, 0, 0, 1, 208, 48)"></rect>
    <rect width="8" height="8" transform="matrix(1, 0, 0, 1, 208, 56)"></rect>
    <rect width="8" height="8" transform="matrix(1, 0, 0, 1, 208, 64)"></rect>
    <rect width="8" height="8" transform="matrix(1, 0, 0, 1, 208, 72)"></rect>
    <rect width="8" height="8" transform="matrix(1, 0, 0, 1, 208, 80)"></rect>
    <rect width="8" height="8" transform="matrix(1, 0, 0, 1, 208, 96)"></rect>
    <rect width="8" height="8" transform="matrix(1, 0, 0, 1, 208, 104)"></rect>
    <rect width="8" height="8" transform="matrix(1, 0, 0, 1, 208, 120)"></rect>
    <rect width="8" height="8" transform="matrix(1, 0, 0, 1, 208, 128)"></rect>
    <rect width="8" height="8" transform="matrix(1, 0, 0, 1, 208, 136)"></rect>
    <rect width="8" height="8" transform="matrix(1, 0, 0, 1, 208, 144)"></rect>
    <rect width="8" height="8" transform="matrix(1, 0, 0, 1, 208, 152)"></rect>
    <rect width="8" height="8" transform="matrix(1, 0, 0, 1, 208, 160)"></rect>
    <rect width="8" height="8" transform="matrix(1, 0, 0, 1, 208, 168)"></rect>
    <rect width="8" height="8" transform="matrix(1, 0, 0, 1, 208, 184)"></rect>
    <rect width="8" height="8" transform="matrix(1, 0, 0, 1, 208, 192)"></rect>
    <rect width="8" height="8" transform="matrix(1, 0, 0, 1, 216, 32)"></rect>
    <rect width="8" height="8" transform="matrix(1, 0, 0, 1, 216, 80)"></rect>
    <rect width="8" height="8" transform="matrix(1, 0, 0, 1, 216, 112)"></rect>
    <rect width="8" height="8" transform="matrix(1, 0, 0, 1, 216, 128)"></rect>
    <rect width="8" height="8" transform="matrix(1, 0, 0, 1, 216, 136)"></rect>
    <rect width="8" height="8" transform="matrix(1, 0, 0, 1, 216, 144)"></rect>
    <rect width="8" height="8" transform="matrix(1, 0, 0, 1, 216, 152)"></rect>
    <rect width="8" height="8" transform="matrix(1, 0, 0, 1, 216, 160)"></rect>
    <rect width="8" height="8" transform="matrix(1, 0, 0, 1, 216, 184)"></rect>
    <rect width="8" height="8" transform="matrix(1, 0, 0, 1, 216, 192)"></rect>
    <rect width="8" height="8" transform="matrix(1, 0, 0, 1, 224, 32)"></rect>
    <rect width="8" height="8" transform="matrix(1, 0, 0, 1, 224, 48)"></rect>
    <rect width="8" height="8" transform="matrix(1, 0, 0, 1, 224, 56)"></rect>
    <rect width="8" height="8" transform="matrix(1, 0, 0, 1, 224, 64)"></rect>
    <rect width="8" height="8" transform="matrix(1, 0, 0, 1, 224, 80)"></rect>
    <rect width="8" height="8" transform="matrix(1, 0, 0, 1, 224, 96)"></rect>
    <rect width="8" height="8" transform="matrix(1, 0, 0, 1, 224, 112)"></rect>
    <rect width="8" height="8" transform="matrix(1, 0, 0, 1, 224, 176)"></rect>
    <rect width="8" height="8" transform="matrix(1, 0, 0, 1, 224, 184)"></rect>
    <rect width="8" height="8" transform="matrix(1, 0, 0, 1, 224, 192)"></rect>
    <rect width="8" height="8" transform="matrix(1, 0, 0, 1, 232, 32)"></rect>
    <rect width="8" height="8" transform="matrix(1, 0, 0, 1, 232, 48)"></rect>
    <rect width="8" height="8" transform="matrix(1, 0, 0, 1, 232, 56)"></rect>
    <rect width="8" height="8" transform="matrix(1, 0, 0, 1, 232, 64)"></rect>
    <rect width="8" height="8" transform="matrix(1, 0, 0, 1, 232, 80)"></rect>
    <rect width="8" height="8" transform="matrix(1, 0, 0, 1, 232, 96)"></rect>
    <rect width="8" height="8" transform="matrix(1, 0, 0, 1, 232, 112)"></rect>
    <rect width="8" height="8" transform="matrix(1, 0, 0, 1, 232, 160)"></rect>
    <rect width="8" height="8" transform="matrix(1, 0, 0, 1, 232, 168)"></rect>
    <rect width="8" height="8" transform="matrix(1, 0, 0, 1, 232, 176)"></rect>
    <rect width="8" height="8" transform="matrix(1, 0, 0, 1, 232, 192)"></rect>
    <rect width="8" height="8" transform="matrix(1, 0, 0, 1, 240, 32)"></rect>
    <rect width="8" height="8" transform="matrix(1, 0, 0, 1, 240, 48)"></rect>
    <rect width="8" height="8" transform="matrix(1, 0, 0, 1, 240, 56)"></rect>
    <rect width="8" height="8" transform="matrix(1, 0, 0, 1, 240, 64)"></rect>
    <rect width="8" height="8" transform="matrix(1, 0, 0, 1, 240, 80)"></rect>
    <rect width="8" height="8" transform="matrix(1, 0, 0, 1, 240, 96)"></rect>
    <rect width="8" height="8" transform="matrix(1, 0, 0, 1, 240, 144)"></rect>
    <rect width="8" height="8" transform="matrix(1, 0, 0, 1, 240, 168)"></rect>
    <rect width="8" height="8" transform="matrix(1, 0, 0, 1, 240, 176)"></rect>
    <rect width="8" height="8" transform="matrix(1, 0, 0, 1, 248, 32)"></rect>
    <rect width="8" height="8" transform="matrix(1, 0, 0, 1, 248, 80)"></rect>
    <rect width="8" height="8" transform="matrix(1, 0, 0, 1, 248, 96)"></rect>
    <rect width="8" height="8" transform="matrix(1, 0, 0, 1, 248, 112)"></rect>
    <rect width="8" height="8" transform="matrix(1, 0, 0, 1, 248, 120)"></rect>
    <rect width="8" height="8" transform="matrix(1, 0, 0, 1, 248, 136)"></rect>
    <rect width="8" height="8" transform="matrix(1, 0, 0, 1, 248, 144)"></rect>
    <rect width="8" height="8" transform="matrix(1, 0, 0, 1, 248, 152)"></rect>
    <rect width="8" height="8" transform="matrix(1, 0, 0, 1, 248, 160)"></rect>
    <rect width="8" height="8" transform="matrix(1, 0, 0, 1, 248, 168)"></rect>
    <rect width="8" height="8" transform="matrix(1, 0, 0, 1, 248, 176)"></rect>
    <rect width="8" height="8" transform="matrix(1, 0, 0, 1, 248, 184)"></rect>
    <rect width="8" height="8" transform="matrix(1, 0, 0, 1, 256, 32)"></rect>
    <rect width="8" height="8" transform="matrix(1, 0, 0, 1, 256, 40)"></rect>
    <rect width="8" height="8" transform="matrix(1, 0, 0, 1, 256, 48)"></rect>
    <rect width="8" height="8" transform="matrix(1, 0, 0, 1, 256, 56)"></rect>
    <rect width="8" height="8" transform="matrix(1, 0, 0, 1, 256, 64)"></rect>
    <rect width="8" height="8" transform="matrix(1, 0, 0, 1, 256, 72)"></rect>
    <rect width="8" height="8" transform="matrix(1, 0, 0, 1, 256, 80)"></rect>
    <rect width="8" height="8" transform="matrix(1, 0, 0, 1, 256, 96)"></rect>
    <rect width="8" height="8" transform="matrix(1, 0, 0, 1, 256, 104)"></rect>
    <rect width="8" height="8" transform="matrix(1, 0, 0, 1, 256, 112)"></rect>
    <rect width="8" height="8" transform="matrix(1, 0, 0, 1, 256, 136)"></rect>
    <rect width="8" height="8" transform="matrix(1, 0, 0, 1, 256, 144)"></rect>
    <rect width="8" height="8" transform="matrix(1, 0, 0, 1, 256, 152)"></rect>
    <rect width="8" height="8" transform="matrix(1, 0, 0, 1, 256, 168)"></rect>
    <rect width="8" height="8" transform="matrix(1, 0, 0, 1, 256, 176)"></rect>
    <rect width="8" height="8" transform="matrix(1, 0, 0, 1, 256, 184)"></rect>
    <rect width="8" height="8" x="208" y="208"></rect>
    <rect width="8" height="8" x="208" y="216"></rect>
    <rect width="8" height="8" x="208" y="224"></rect>
    <rect width="8" height="8" x="208" y="232"></rect>
    <rect width="8" height="8" x="208" y="240"></rect>
    <rect width="8" height="8" x="208" y="248"></rect>
    <rect width="8" height="8" x="208" y="256"></rect>
    <rect width="8" height="8" x="216" y="208"></rect>
    <rect width="8" height="8" x="216" y="256"></rect>
    <rect width="8" height="8" x="224" y="208"></rect>
    <rect width="8" height="8" x="224" y="256"></rect>
    <rect width="8" height="8" x="232" y="208"></rect>
    <rect width="8" height="8" x="232" y="256"></rect>
    <rect width="8" height="8" x="240" y="208"></rect>
    <rect width="8" height="8" x="240" y="256"></rect>
    <rect width="8" height="8" x="248" y="208"></rect>
    <rect width="8" height="8" x="248" y="256"></rect>
    <rect width="8" height="8" x="256" y="208"></rect>
    <rect width="8" height="8" x="256" y="216"></rect>
    <rect width="8" height="8" x="256" y="224"></rect>
    <rect width="8" height="8" x="256" y="232"></rect>
    <rect width="8" height="8" x="256" y="240"></rect>
    <rect width="8" height="8" x="256" y="248"></rect>
    <rect width="8" height="8" x="256" y="256"></rect>
  </g>
  <g fill="#000000" transform="matrix(1, 0, 0, 1, 0.9, 0)">
    <path d="M 406.851 272.3 L 416.953 257.131 L 406.853 241.964 L 414.493 241.964 L 434.646 272.298 L 427.081 272.298 L 420.75 262.735 L 414.491 272.298 L 406.851 272.3 Z"></path>
  </g>
</svg>